<svg width="40" height="40" viewBox="0 0 40 40" fill="none" xmlns="http://www.w3.org/2000/svg">
<path d="M19.9999 3.33331C10.8166 3.33331 3.33325 10.8166 3.33325 20C3.33325 29.1833 10.8166 36.6666 19.9999 36.6666C29.1833 36.6666 36.6666 29.1833 36.6666 20C36.6666 10.8166 29.1833 3.33331 19.9999 3.33331ZM14.1666 15C15.5499 15 16.6666 16.1166 16.6666 17.5C16.6666 18.8833 15.5499 20 14.1666 20C12.7833 20 11.6666 18.8833 11.6666 17.5C11.6666 16.1166 12.7833 15 14.1666 15ZM19.9999 30C13.3333 30 11.6666 23.3333 11.6666 23.3333H28.3333C28.3333 23.3333 26.6666 30 19.9999 30ZM25.8333 20C24.4499 20 23.3333 18.8833 23.3333 17.5C23.3333 16.1166 24.4499 15 25.8333 15C27.2166 15 28.3333 16.1166 28.3333 17.5C28.3333 18.8833 27.2166 20 25.8333 20Z" fill="#FF0000"/>
</svg>
