<svg width="40" height="40" viewBox="0 0 40 40" fill="none" xmlns="http://www.w3.org/2000/svg">
<g clip-path="url(#clip0_114_835)">
<path d="M13.9347 1.31556C9.93804 2.70202 6.49136 5.33358 4.10088 8.82369C1.71041 12.3138 0.502136 16.4785 0.653545 20.7061C0.804954 24.9336 2.30806 29.0012 4.94209 32.3114C7.57612 35.6216 11.2022 37.9998 15.2878 39.0968C18.6 39.9515 22.0703 39.989 25.4003 39.2062C28.4169 38.5286 31.2059 37.0792 33.494 34.9999C35.8755 32.7698 37.6042 29.9327 38.494 26.7937C39.4613 23.3801 39.6334 19.7903 38.9972 16.2999H20.3972V24.0156H31.169C30.9538 25.2461 30.4924 26.4207 29.8126 27.4688C29.1328 28.5169 28.2486 29.4171 27.2128 30.1156C25.8974 30.9857 24.4146 31.5711 22.8597 31.8343C21.3001 32.1243 19.7005 32.1243 18.1409 31.8343C16.5603 31.5075 15.065 30.8551 13.7503 29.9187C11.6383 28.4236 10.0524 26.2997 9.21904 23.8499C8.37158 21.3543 8.37158 18.6487 9.21904 16.1531C9.81224 14.4037 10.7929 12.811 12.0878 11.4937C13.5696 9.95852 15.4457 8.86117 17.5101 8.32205C19.5746 7.78292 21.7477 7.82284 23.7909 8.43743C25.3871 8.92741 26.8467 9.78349 28.0534 10.9374C29.268 9.7291 30.4805 8.51764 31.6909 7.30306C32.3159 6.64993 32.9972 6.02806 33.6128 5.35931C31.7708 3.64517 29.6087 2.31136 27.2503 1.43431C22.9556 -0.125099 18.2565 -0.167006 13.9347 1.31556Z" fill="white"/>
<path d="M13.9343 1.31561C18.2558 -0.16796 22.9549 -0.127156 27.2499 1.43124C29.6087 2.31425 31.7699 3.65448 33.6093 5.37499C32.9843 6.04374 32.3249 6.66874 31.6874 7.31874C30.4749 8.52915 29.2635 9.7354 28.0531 10.9375C26.8463 9.78354 25.3867 8.92746 23.7906 8.43749C21.748 7.82074 19.575 7.77851 17.51 8.31543C15.445 8.85235 13.5678 9.94768 12.0843 11.4812C10.7894 12.7985 9.80876 14.3913 9.21555 16.1406L2.73743 11.125C5.0562 6.52674 9.07102 3.00944 13.9343 1.31561Z" fill="#E33629"/>
<path d="M1.01859 16.0936C1.36679 14.368 1.94486 12.6968 2.73734 11.1249L9.21547 16.153C8.36802 18.6486 8.36802 21.3542 9.21547 23.8499C7.05714 25.5165 4.89776 27.1915 2.73734 28.8749C0.75344 24.9259 0.148384 20.4264 1.01859 16.0936Z" fill="#F8BD00"/>
<path d="M20.3969 16.297H38.9969C39.6331 19.7874 39.461 23.3772 38.4938 26.7907C37.6039 29.9297 35.8753 32.7668 33.4938 34.997C31.4031 33.3657 29.3031 31.747 27.2125 30.1157C28.249 29.4166 29.1337 28.5154 29.8135 27.4662C30.4933 26.4169 30.9543 25.2412 31.1688 24.0095H20.3969C20.3938 21.4407 20.3969 18.8689 20.3969 16.297Z" fill="#587DBD"/>
<path d="M2.73438 28.8751C4.89479 27.2084 7.05417 25.5334 9.2125 23.8501C10.0475 26.3007 11.6356 28.4248 13.75 29.9188C15.0688 30.8509 16.5673 31.498 18.15 31.8188C19.7096 32.1088 21.3092 32.1088 22.8687 31.8188C24.4237 31.5556 25.9065 30.9702 27.2219 30.1001C29.3125 31.7313 31.4125 33.3501 33.5031 34.9813C31.2153 37.0617 28.4263 38.5122 25.4094 39.1907C22.0794 39.9736 18.6091 39.936 15.2969 39.0813C12.6772 38.3819 10.2302 37.1488 8.10938 35.4595C5.86457 33.6772 4.03111 31.4313 2.73438 28.8751Z" fill="#319F43"/>
</g>
<defs>
<clipPath id="clip0_114_835">
<rect width="40" height="40" fill="white"/>
</clipPath>
</defs>
</svg>
