<svg width="40" height="40" viewBox="0 0 40 40" fill="none" xmlns="http://www.w3.org/2000/svg">
<circle cx="20" cy="20" r="20" fill="#FF0000"/>
<path d="M28.99 23.8418C28.8384 24.9935 28.2728 26.0508 27.3987 26.816C26.5246 27.5812 25.4018 28.0021 24.2401 28C17.4911 28 12 22.5089 12 15.7599C11.9979 14.5982 12.4188 13.4754 13.184 12.6013C13.9492 11.7272 15.0065 11.1616 16.1582 11.01C16.4495 10.9745 16.7445 11.0341 16.9991 11.1799C17.2537 11.3257 17.4543 11.55 17.571 11.8192L19.3662 15.827V15.8372C19.4555 16.0433 19.4924 16.2683 19.4736 16.4921C19.4547 16.716 19.3807 16.9316 19.2582 17.1199C19.2429 17.1428 19.2268 17.1641 19.2098 17.1853L17.4401 19.2832C18.0767 20.5769 19.4299 21.9182 20.7406 22.5565L22.8096 20.7962C22.8299 20.7791 22.8512 20.7632 22.8733 20.7486C23.0614 20.6231 23.2778 20.5465 23.503 20.5258C23.7281 20.505 23.9549 20.5407 24.1628 20.6296L24.1738 20.6347L28.1782 22.429C28.4479 22.5453 28.6727 22.7457 28.8191 23.0004C28.9654 23.255 29.0253 23.5502 28.99 23.8418Z" fill="white"/>
</svg>
